<svg xmlns="http://www.w3.org/2000/svg" viewBox="0 0 500 500"><g id="freepik--background-complete--inject-130"><rect x="416.78" y="398.49" width="33.12" height="0.25" style="fill:#ebebeb"></rect><rect x="322.53" y="401.21" width="8.69" height="0.25" style="fill:#ebebeb"></rect><rect x="396.59" y="389.21" width="19.19" height="0.25" style="fill:#ebebeb"></rect><rect x="52.46" y="390.89" width="43.19" height="0.25" style="fill:#ebebeb"></rect><rect x="104.56" y="390.89" width="6.33" height="0.25" style="fill:#ebebeb"></rect><rect x="131.47" y="395.11" width="93.68" height="0.25" style="fill:#ebebeb"></rect><path d="M237,337.8H43.92a5.71,5.71,0,0,1-5.71-5.71V60.66A5.71,5.71,0,0,1,43.92,55H237a5.71,5.71,0,0,1,5.71,5.71V332.09A5.71,5.71,0,0,1,237,337.8ZM43.92,55.2a5.47,5.47,0,0,0-5.46,5.46V332.09a5.47,5.47,0,0,0,5.46,5.46H237a5.47,5.47,0,0,0,5.46-5.46V60.66A5.47,5.47,0,0,0,237,55.2Z" style="fill:#ebebeb"></path><path d="M453.31,337.8H260.21a5.72,5.72,0,0,1-5.71-5.71V60.66A5.72,5.72,0,0,1,260.21,55h193.1A5.71,5.71,0,0,1,459,60.66V332.09A5.71,5.71,0,0,1,453.31,337.8ZM260.21,55.2a5.47,5.47,0,0,0-5.46,5.46V332.09a5.47,5.47,0,0,0,5.46,5.46h193.1a5.47,5.47,0,0,0,5.46-5.46V60.66a5.47,5.47,0,0,0-5.46-5.46Z" style="fill:#ebebeb"></path><rect y="382.4" width="500" height="0.25" style="fill:#ebebeb"></rect><path d="M306.72,211.05s16.79-41.92,49.36-51,34.29,15.08,74.65,3.9c0,0-42.21,45.42-83.11,46.24Z" style="fill:#ebebeb"></path><path d="M356.08,160.09c-32.57,9-49.36,51-49.36,51h.12c4.16-5.07,19.17-20.8,50.6-28.2l31.93-4.33,15.4-3.49,14.37-5.18L430.73,164C390.37,175.17,388.65,151.06,356.08,160.09Z" style="fill:#f5f5f5"></path><path d="M419.14,169.85A134.37,134.37,0,0,1,403,174.63a10,10,0,0,0,4.6-6.4c-1.55,3-4.69,5.53-6.62,6.88A223.37,223.37,0,0,1,378.29,179c2.24-1.52,5.89-4.35,7.85-7.83a31.4,31.4,0,0,1,5.69-7.08s-2.05-.59-7.75,7.18a23.69,23.69,0,0,1-12,8.4l-3.64.32a98.57,98.57,0,0,0-21.86,4.15c.62-10.26,11.16-22,11.16-22-11,8.89-13.06,19.12-13.45,22.73a90,90,0,0,0-18.79,9c3.39-8.34,2.71-12.15,2.71-12.15a47.14,47.14,0,0,1-5.37,13.89A101.9,101.9,0,0,0,306.05,210c-2.24,2.38-7.66,9-9.63,11.48a1.06,1.06,0,1,0,1.67,1.3,114.43,114.43,0,0,1,31.27-27.16c5.08.41,19.59,2.28,28.86,10.38,0,0-6.55-10.35-26.07-12A98.28,98.28,0,0,1,355,185c6.26.64,18.82,3,28.45,11.64,0,0-7-10.31-22.74-12.91,2.11-.4,4.25-.75,6.44-1,7.7-.9,14.35-1.92,20.08-3A30.46,30.46,0,0,1,394,181c5.42,1.85,12.09.33,12.09.33s-8.48-.53-11.35-1.54a20.2,20.2,0,0,0-3.6-.86C412.28,174.6,419.14,169.85,419.14,169.85Z" style="fill:#e0e0e0"></path><path d="M241.55,172.19s-41.91,9.95-66.85-10.49-7.09-35-38-60.35c0,0,58.6,8,81.71,39.4Z" style="fill:#ebebeb"></path><path d="M174.7,161.7c24.94,20.44,66.85,10.49,66.85,10.49l-.07-.09c-6.23-.46-26.74-3.52-49.79-24l-20.92-22.52-11.18-10.09-11.94-8.36-10.93-5.82C167.61,126.68,149.75,141.27,174.7,161.7Z" style="fill:#f5f5f5"></path><path d="M147.65,107.17a127.2,127.2,0,0,1,12.6,10,9.55,9.55,0,0,0-7.51-.07c3.2-.45,6.88.62,9,1.38A211.28,211.28,0,0,1,177.26,134c-2.42-.92-6.63-2.21-10.41-1.82a30.26,30.26,0,0,1-8.66-.55s.67,1.92,9.87,2.1a22.53,22.53,0,0,1,13.16,4.77c.75.87,1.49,1.75,2.25,2.66a93.78,93.78,0,0,0,15.25,14.76c-8.34,5.16-23.28,3.38-23.28,3.38,13,3.68,22.09-.32,25.12-2A85.82,85.82,0,0,0,217.89,167c-8.36,1.94-11,4.56-11,4.56a44.68,44.68,0,0,1,13.78-3.44,97.08,97.08,0,0,0,20.42,5.15c3.09.45,11.26,1,14.24,1.21a1,1,0,1,0,.1-2A109.28,109.28,0,0,1,217.1,163c-2.47-4.19-9-16.53-7.76-28.21,0,0-4.47,10.79,5,26.91a94.13,94.13,0,0,1-19.67-12.82c-2.94-5.23-8-16.32-6.56-28.58,0,0-4.21,11.1,2.43,24.82-1.46-1.42-2.91-2.9-4.31-4.47-4.93-5.51-9.38-10.13-13.36-14a28.31,28.31,0,0,1-2.7-6c-1.54-5.23-6.39-9.6-6.39-9.6s4.24,6.91,5,9.7a19.47,19.47,0,0,0,1.31,3.28C155.12,109.91,147.65,107.17,147.65,107.17Z" style="fill:#e0e0e0"></path><path d="M130.65,319.08s-32.58-9.88-53.24,5-7.29,27.28-32.88,45.76c0,0,46.61-3.43,66.36-27.11Z" style="fill:#ebebeb"></path><path d="M77.41,324.11c20.66-14.91,53.24-5,53.24-5l-.06.07c-4.94.05-21.27,1.48-40.43,16.48L72.57,352.38l-9.31,7.42-9.82,6-8.91,4.06C70.12,351.39,56.75,339,77.41,324.11Z" style="fill:#f5f5f5"></path><path d="M53.44,365.81a100.6,100.6,0,0,0,10.42-7.25,7.55,7.55,0,0,1-5.93-.31,15.94,15.94,0,0,0,7.16-.66,164.14,164.14,0,0,0,13-11.49,19.37,19.37,0,0,1-8.3.93,23.69,23.69,0,0,0-6.85,0s.62-1.48,7.88-1.18a17.83,17.83,0,0,0,10.61-3.13l1.9-2a74.33,74.33,0,0,1,12.75-10.9c-6.33-4.47-18.2-3.79-18.2-3.79,10.42-2.28,17.41,1.32,19.72,2.79A67.77,67.77,0,0,1,111.74,322c-6.51-1.94-8.43-4.13-8.43-4.13a35.51,35.51,0,0,0,10.7,3.38,76.69,76.69,0,0,1,16.36-3.07c2.46-.21,8.93-.26,11.29-.27a.8.8,0,1,1,0,1.6,86.29,86.29,0,0,0-30.72,5.6c-2.15,3.19-7.89,12.6-7.49,21.88,0,0-3-8.73,5.24-21a73.85,73.85,0,0,0-16.13,9.15c-2.58,4-7.11,12.48-6.56,22.23,0,0-2.78-9,3.12-19.47-1.23,1.05-2.44,2.15-3.62,3.32-4.16,4.11-7.89,7.54-11.22,10.41a23.17,23.17,0,0,0-2.42,4.6c-1.47,4.06-5.5,7.27-5.5,7.27s3.68-5.24,4.44-7.41A15.22,15.22,0,0,1,72,353.62C59.46,364,53.44,365.81,53.44,365.81Z" style="fill:#e0e0e0"></path><path d="M124,207.87s12.57-26.94,2.24-46.65-22.68-9.68-35.49-34.1c0,0-2.8,40.72,15.22,60.73Z" style="fill:#ebebeb"></path><path d="M126.22,161.22c10.33,19.71-2.24,46.65-2.24,46.65l-.06-.06c.56-4.28,1.36-18.57-9.24-37l-12.3-17.29-5.26-9-4-9.24-2.41-8.2C103.54,151.54,115.9,141.5,126.22,161.22Z" style="fill:#f5f5f5"></path><path d="M93.14,135.32a88.2,88.2,0,0,0,5,9.91,6.61,6.61,0,0,1,1-5.09,14.12,14.12,0,0,0-.32,6.28,148.17,148.17,0,0,0,8.32,12.66,17.09,17.09,0,0,1,.23-7.3,20.81,20.81,0,0,0,.84-5.92s1.2.72,0,7a15.55,15.55,0,0,0,1.39,9.56c.48.63,1,1.26,1.48,1.89A65.45,65.45,0,0,1,119,176.64c4.65-4.91,5.53-15.26,5.53-15.26.68,9.29-3.3,14.89-4.86,16.7a59.25,59.25,0,0,1,4.15,13.07c2.48-5.38,4.62-6.77,4.62-6.77a30.71,30.71,0,0,0-4.26,8.83,66.89,66.89,0,0,1,.63,14.52c-.13,2.15-.89,7.75-1.17,9.79a.69.69,0,0,1-.85.58.7.7,0,0,1-.53-.79,75.45,75.45,0,0,0-1-27.25c-2.49-2.25-9.92-8.39-18-9.19,0,0,7.92-1.51,17.49,7.13a64.25,64.25,0,0,0-5.92-15.08c-3.12-2.72-9.9-7.69-18.4-8.43,0,0,8.1-1.29,16.45,5.11-.76-1.19-1.56-2.37-2.43-3.54-3-4.1-5.53-7.75-7.6-11a19.55,19.55,0,0,0-3.68-2.67,16.93,16.93,0,0,1-5.6-5.66s4.08,3.84,5.85,4.76a13.61,13.61,0,0,1,2,1.34C94,140.75,93.14,135.32,93.14,135.32Z" style="fill:#e0e0e0"></path><path d="M173,332.2s33.82,3.88,46.86,25.77-4.16,27.93,12,55.06c0,0-41.4-21.67-50.12-51.25Z" style="fill:#ebebeb"></path><path d="M219.81,358C206.77,336.08,173,332.2,173,332.2l0,.08c4.51,2,18.92,9.81,30.55,31.2L213,385.84l5.59,10.5,6.62,9.42,6.56,7.27C215.65,385.9,232.84,379.86,219.81,358Z" style="fill:#f5f5f5"></path><path d="M225.23,405.76A101,101,0,0,1,218.55,395a7.54,7.54,0,0,0,5.56,2.07,16.12,16.12,0,0,1-6.31-3.45,167.57,167.57,0,0,1-7.36-15.71,19.61,19.61,0,0,0,7.25,4.16,23.57,23.57,0,0,1,6.28,2.73s0-1.61-6.76-4.21a17.9,17.9,0,0,1-8.5-7.09c-.32-.85-.64-1.7-1-2.58a74.44,74.44,0,0,0-7.37-15.07c7.59-1.59,18.21,3.75,18.21,3.75-8.65-6.23-16.5-5.7-19.21-5.27a67.22,67.22,0,0,0-10.26-11.88c6.74.81,9.38-.44,9.38-.44a35.3,35.3,0,0,1-11.17-1.15,76.15,76.15,0,0,0-13.79-9.32c-2.17-1.16-8.09-3.78-10.25-4.73a.8.8,0,0,0-1.08.49.79.79,0,0,0,.46,1,86.36,86.36,0,0,1,26,17.35c.71,3.78,2.24,14.7-1.82,23,0,0,6.23-6.82,3.53-21.33a73.83,73.83,0,0,1,11.17,14.81c.78,4.68,1.56,14.28-2.81,23,0,0,6.11-7.11,4.87-19.1.71,1.45,1.38,2.94,2,4.49,2.18,5.42,4.25,10.05,6.16,14a22.42,22.42,0,0,1,.39,5.19c-.27,4.3,2.16,8.85,2.16,8.85s-1.29-6.27-1.13-8.56a14.61,14.61,0,0,0-.09-2.78C220.42,401.72,225.23,405.76,225.23,405.76Z" style="fill:#e0e0e0"></path><path d="M334.51,386.24s15.36-30.37,40.42-35,24.76,13.58,55.8,7.84c0,0-34.68,31.33-65.45,29.26Z" style="fill:#ebebeb"></path><path d="M374.93,351.22c-25.06,4.65-40.42,35-40.42,35h.09c3.46-3.53,15.77-14.35,39.86-17.85l24.26-1.15,11.79-1.6,11.13-2.95,9.09-3.64C399.69,364.8,400,346.58,374.93,351.22Z" style="fill:#f5f5f5"></path><path d="M421.64,362.7a100.76,100.76,0,0,1-12.44,2.53,7.56,7.56,0,0,0,3.87-4.51,16.05,16.05,0,0,1-5.42,4.73,165.31,165.31,0,0,1-17.29,1.46,19.49,19.49,0,0,0,6.41-5.36,23.77,23.77,0,0,1,4.74-4.95s-1.5-.57-6.3,4.89a17.79,17.79,0,0,1-9.59,5.51h-2.75a74.63,74.63,0,0,0-16.69,1.69c1.14-7.67,9.83-15.78,9.83-15.78-8.84,6-11.07,13.51-11.6,16.19a67.5,67.5,0,0,0-14.7,5.51c3.09-6,2.83-8.95,2.83-8.95a35.3,35.3,0,0,1-4.94,10.08,75.93,75.93,0,0,0-13.52,9.7c-1.85,1.64-6.35,6.28-8,8a.8.8,0,0,0,.08,1.18.8.8,0,0,0,1.09-.09,86.27,86.27,0,0,1,25.26-18.34c3.79.64,14.57,3,21,9.69,0,0-4.24-8.2-18.79-10.7a74.39,74.39,0,0,1,17.76-5.34c4.66.89,13.94,3.48,20.6,10.61,0,0-4.55-8.2-16.23-11.19,1.61-.16,3.24-.28,4.91-.33,5.84-.16,10.89-.49,15.27-.92a23.35,23.35,0,0,1,5,1.43c3.94,1.74,9.06,1,9.06,1s-6.34-1-8.43-1.9a14.66,14.66,0,0,0-2.64-.89C416.18,365.81,421.64,362.7,421.64,362.7Z" style="fill:#e0e0e0"></path><path d="M299.93,163.16s-3.6-25.9,10.19-39.8,21.58-2.27,38.67-19.49c0,0-8.19,35-28.52,47.13Z" style="fill:#ebebeb"></path><path d="M310.12,123.36c-13.79,13.9-10.19,39.8-10.19,39.8l.06,0c.64-3.75,3.67-16,17.35-28.72l14.82-11.35,6.74-6.18,5.74-6.73,4.15-6.28C331.7,121.09,323.91,109.45,310.12,123.36Z" style="fill:#f5f5f5"></path><path d="M344.64,110.15a78.73,78.73,0,0,1-6.75,7,5.82,5.82,0,0,0,.47-4.54A12.39,12.39,0,0,1,337,118a127.08,127.08,0,0,1-10.28,8.49,15.12,15.12,0,0,0,1.7-6.19,18.14,18.14,0,0,1,.83-5.2s-1.2.3-1.84,5.84a13.79,13.79,0,0,1-3.64,7.69l-1.74,1.2a57.38,57.38,0,0,0-9.8,8.37c-2.64-5.34-.7-14.26-.7-14.26-3,7.63-1.08,13.37-.23,15.3a51.87,51.87,0,0,0-6.88,9.91c-.69-5.17-2.13-6.89-2.13-6.89a27.19,27.19,0,0,1,1.3,8.53,58.43,58.43,0,0,0-4.29,12c-.45,1.85-1.26,6.75-1.55,8.54a.61.61,0,0,0,.56.71.61.61,0,0,0,.65-.53,66.33,66.33,0,0,1,7.92-22.65c2.68-1.25,10.51-4.48,17.5-3.07,0,0-6.26-3.32-16.55,1.47a57.53,57.53,0,0,1,8.88-11.15c3.33-1.47,10.33-3.9,17.66-2.32,0,0-6.47-3.18-15.15,0,.94-.8,1.92-1.59,2.95-2.35,3.62-2.66,6.67-5.08,9.24-7.27a16.92,16.92,0,0,1,3.79-1.28,15,15,0,0,0,6.17-3.31,40.12,40.12,0,0,1-6.16,2.48,12.21,12.21,0,0,0-2.05.6C342.55,114.5,344.64,110.15,344.64,110.15Z" style="fill:#e0e0e0"></path></g><g id="freepik--Shadow--inject-130"><ellipse id="freepik--path--inject-130" cx="245.18" cy="412.39" rx="193.89" ry="11.32" style="fill:#f5f5f5"></ellipse></g><g id="freepik--Leaves--inject-130"><path d="M335.83,271.58s30.55-21.22,57-12.66,16.75,25.91,49.57,36.53c0,0-49.61,12.09-78.11-5.89Z" style="fill:#263238"></path><path d="M335.83,271.58s30.55-21.22,57-12.66,16.75,25.91,49.57,36.53c0,0-49.61,12.09-78.11-5.89Z" style="fill:#fff;opacity:0.1"></path><path d="M361.44,263.25a2,2,0,0,0,.38,3.91,69.54,69.54,0,0,1,28,7.31c8.74,4.37,16.15,7.83,21.92,10.42a2,2,0,0,0,2.22-3.21,52.58,52.58,0,0,1-8.4-11.25C399.76,259.88,378.09,259.21,361.44,263.25Z" style="fill:#fff;opacity:0.1"></path><path d="M323.09,275.39s9.51-3.05,12.74-3.81c13.84-3.25,33.9-5.83,56.48,6.63s39.5,16,39.5,16-11.76.28-41.55-14.75C357.58,263,323.8,277,323.8,277Z" style="fill:#263238"></path><path d="M357.17,270.35s13,9.12,16.35,21.13c0,0,.2-10.69-13.65-20.93Z" style="fill:#263238"></path><path d="M378.3,273.6s13.11,8.52,16.86,22.83c0,0-.13-12.22-12.69-21.61Z" style="fill:#263238"></path><path d="M401.29,283.62s5.3,3.15,8.19,6.88,8.16,5.7,8.16,5.7-5.59-4.21-7.11-6.21a18.52,18.52,0,0,0-3.58-3.45Z" style="fill:#263238"></path><path d="M415.32,289.58s5.62.35,9.28-1.71a8.39,8.39,0,0,1-7.51,2.18Z" style="fill:#263238"></path><path d="M393,278.93a19.63,19.63,0,0,0,14.08.39c7.45-2.75,8.59-1.42,8.59-1.42a25.93,25.93,0,0,0-7.13,2.29c-4.41,2.27-10.82,1.78-10.82,1.78Z" style="fill:#263238"></path><path d="M372.8,271.52s5.88-9,20.24-10.42c0,0-13.23,3.45-18,10.59Z" style="fill:#263238"></path><path d="M350.43,269.84a41.1,41.1,0,0,0,13.43-8.68s-1.74,4.1-11.24,9.56Z" style="fill:#263238"></path><path d="M340.21,262s12.61,6.06,15.57-4.49-17.3-52.22-17.3-52.22S349,251.64,340.21,262Z" style="fill:#263238"></path><path d="M340.21,262s12.61,6.06,15.57-4.49-17.3-52.22-17.3-52.22S349,251.64,340.21,262Z" style="fill:#fff;opacity:0.30000000000000004"></path><path d="M319.92,188s-.35,18.65,10.05,41.91,12.26,32.69-5,49.87l2.13,2.44,11.79-16.1,9.56-20.76L332.8,210.94l-7.62-16.74Z" style="fill:#263238"></path><path d="M338.85,266.14s31.13-25,18.51-52.27c-13.25-28.69-27.28-17.93-38.11-31.06,0,0,1.25,16.5,10.11,39.91S343.87,254.15,338.85,266.14Z" style="fill:#263238"></path><path d="M338.85,266.14s31.13-25,18.51-52.27c-13.25-28.69-27.28-17.93-38.11-31.06,0,0,1.25,16.5,10.11,39.91S343.87,254.15,338.85,266.14Z" style="fill:#fff;opacity:0.2"></path><path d="M340.63,255.2c2.85-2.14,9.93-8.32,16.66-21,0,0-8,13.32-16.92,19C340.48,253.87,340.57,254.54,340.63,255.2Z" style="fill:#263238"></path><path d="M338.74,246.9a82.17,82.17,0,0,0,15.37-28.82S345,238.22,338,244.64C338.24,245.42,338.5,246.17,338.74,246.9Z" style="fill:#263238"></path><path d="M333,232.13c9.35-9.52,14.1-25.86,14.1-25.86-6.44,13.91-12.58,21.68-14.76,24.21Q332.73,231.32,333,232.13Z" style="fill:#263238"></path><path d="M336,198.76a34.12,34.12,0,0,0-9.85,14.82c.31,1,.63,1.95,1,2.95C328.37,212.66,331.91,202.43,336,198.76Z" style="fill:#263238"></path><path d="M218.82,296.4s-39.57-8.12-62.37,11.76-5.63,33-33.86,57.67c0,0,54.71-9.15,75.47-39.29Z" style="fill:#263238"></path><path d="M218.82,296.4s-39.57-8.12-62.37,11.76-5.63,33-33.86,57.67c0,0,54.71-9.15,75.47-39.29Z" style="fill:#fff;opacity:0.2"></path><path d="M189.69,299a2.15,2.15,0,0,1,1.29,4.07,75.59,75.59,0,0,0-24.82,19.27c-6.86,8.1-12.78,14.73-17.43,19.78a2.15,2.15,0,0,1-3.59-2.25,57.29,57.29,0,0,0,3.57-14.83C150,312.06,171.34,302.13,189.69,299Z" style="fill:#fff;opacity:0.2"></path><path d="M233.17,294.76s-10.79,1-14.35,1.64c-15.21,2.68-36.34,8.68-53.55,30.78s-32.6,32.88-32.6,32.88,11.87-4.75,35.19-32.5c25.58-30.43,65.31-30.86,65.31-30.86Z" style="fill:#263238"></path><path d="M197,304.3s-9.11,14.68-7.29,28.09c0,0-4.77-10.58,4.68-26.73Z" style="fill:#263238"></path><path d="M177.28,316.58s-9.44,14.13-7.06,30c0,0-5.1-12.26,3.43-27Z" style="fill:#263238"></path><path d="M158.62,336.43s-4,5.41-5.24,10.36-5.71,9.19-5.71,9.19,3.78-6.6,4.44-9.24a20.17,20.17,0,0,1,2.1-5Z" style="fill:#263238"></path><path d="M147.16,348.37s-5.47,2.76-10,2.27a9.12,9.12,0,0,0,8.43-1Z" style="fill:#263238"></path><path d="M164.92,328.18A21.29,21.29,0,0,1,151,334.59c-8.61.44-9.19,2.26-9.19,2.26a28.1,28.1,0,0,1,8.1-.77c5.37.38,11.57-2.84,11.57-2.84Z" style="fill:#263238"></path><path d="M181.89,312.16s-9.73-6.49-24.66-1.75c0,0,14.68-2.21,22.52,2.86Z" style="fill:#263238"></path><path d="M203.51,300.91A44.78,44.78,0,0,1,186.39,298s3.48,3.35,15.3,4.74Z" style="fill:#263238"></path><path d="M225,291.69c2.66.07,14.29,36.39,18.39,54.3,4.42,19.31.73,43.71,23.91,52.11-33.27,5.72-58.39-26.37-58.16-54.91C209.28,325.78,224.71,291.68,225,291.69Z" style="fill:#263238"></path><path d="M225,291.69c2.66.07,14.29,36.39,18.39,54.3,4.42,19.31.73,43.71,23.91,52.11-33.27,5.72-58.39-26.37-58.16-54.91C209.28,325.78,224.71,291.68,225,291.69Z" style="fill:#fff;opacity:0.1"></path><path d="M231.26,317.94c-.67-2.19-3.91.29-3.74,3a259.83,259.83,0,0,0,4.15,33.86,65.6,65.6,0,0,0,10.27,24.6c1.33,1.91,3.42.45,2.73-1.74a35.33,35.33,0,0,1-1.3-14.26C245,349.29,235.35,331.31,231.26,317.94Z" style="fill:#fff;opacity:0.1"></path><path d="M257.72,395.62s-4.8-1.68-11.38-8c3.35,1.72,5.56.14,5.56.14-2.28.43-5.17-.58-6.83-1.4a54.1,54.1,0,0,1-11.22-17.28c1.58,1.57,4.47,3.81,7.2,4.22a24.53,24.53,0,0,1,6.17,1.92s-.39-1.39-6.9-3.57c-4.35-1.46-7.21-5.56-8.46-8.18q-.5-1.65-.9-3.39a181.87,181.87,0,0,1-3.76-21.51c7.12-.27,14.75,8.94,14.75,8.94-6.32-8.89-12.74-11.2-15-11.34-.81-7.08-1.31-14.24-1.58-21.35,4.8,5.13,8.11,4.53,8.11,4.53-4.2-1.92-7-6-8.26-8.39-.24-7.22-.3-13.67-.2-19.28.06-3.79.38-14.86.38-14.86-1.07.79-1.61,1.19-2.66,2,.34,13.9-.35,27.73.29,41.65-4.19,11.46-6.95,23.32-10.64,34.94,5-10,7.52-21.27,10.86-31.8a201.44,201.44,0,0,0,3.19,24c-.58,10.92-.63,21.85-1.21,32.76,1.81-8.84,2.16-18.09,2.35-27.07.45,2.05.94,4.11,1.47,6.21a61.21,61.21,0,0,0,7.43,17.75c.73,2,1.55,4.18,2.14,6.26,1.51,5.28,6.19,9.64,6.19,9.64s-4.4-6.78-5.19-9.56c-.34-1.2-.75-2.36-1.11-3.31C243.91,386.69,249.47,393,257.72,395.62Z" style="fill:#263238"></path><path d="M275.54,246.44c-2.37-.43-7.76-34.43-9-51-1.29-17.84,5.36-39.11-14.17-49.79,30.47-.53,48.48,31.56,44.35,57C294.24,218.18,275.78,246.49,275.54,246.44Z" style="fill:#263238"></path><path d="M275.54,246.44c-2.37-.43-7.76-34.43-9-51-1.29-17.84,5.36-39.11-14.17-49.79,30.47-.53,48.48,31.56,44.35,57C294.24,218.18,275.78,246.49,275.54,246.44Z" style="fill:#fff;opacity:0.1"></path><path d="M282.92,179.18a117.06,117.06,0,0,1,1.85,29.3,2.62,2.62,0,0,0,5.12.93c3-9.67,4.58-22.25-2.27-32.29A2.62,2.62,0,0,0,282.92,179.18Z" style="fill:#fff;opacity:0.2"></path><path d="M260.61,149.21s4.05,2.16,9.05,8.68c-2.75-2-4.94-.89-4.94-.89,2.1-.06,4.53,1.24,5.9,2.19a49.07,49.07,0,0,1,7.65,17c-1.2-1.62-3.47-4-5.85-4.76a22.45,22.45,0,0,1-5.24-2.56s.15,1.29,5.66,4.13c3.68,1.9,5.67,6,6.43,8.47.14,1,.25,2.07.34,3.14a166.31,166.31,0,0,1,.4,19.72c-6.4-.74-11.94-10-11.94-10,4.42,8.79,9.83,11.74,11.85,12.18-.25,6.42-.78,12.88-1.52,19.27-3.58-5.24-6.62-5.16-6.62-5.16a17,17,0,0,1,6.22,8.62c-.77,6.47-1.6,12.24-2.46,17.23-.59,3.38-2.39,13.21-2.39,13.21,1.07-.55,1.6-.84,2.65-1.42,1.61-12.44,4.12-24.7,5.47-37.2,5.31-9.65,9.4-19.86,14.29-29.72-5.79,8.2-9.63,17.95-14.06,26.88a183.07,183.07,0,0,0,.45-21.85c2-9.66,3.57-19.4,5.58-29.06-2.83,7.64-4.41,15.84-5.82,23.84-.11-1.9-.27-3.8-.45-5.75a55.37,55.37,0,0,0-4.2-16.86c-.38-1.86-.8-3.95-1.05-5.88-.62-4.92-4.19-9.46-4.19-9.46s3,6.66,3.31,9.25c.14,1.12.35,2.21.54,3.1C271.7,159.07,267.61,152.66,260.61,149.21Z" style="fill:#263238"></path><path d="M358.46,291.29c-2.29.76-2.88,35.18-1.76,51.74,1.21,17.84,10.75,38-7.1,51.28,30.25-3.72,43.61-38,36-62.62C380.92,316.68,358.69,291.22,358.46,291.29Z" style="fill:#263238"></path><path d="M358.46,291.29c-2.29.76-2.88,35.18-1.76,51.74,1.21,17.84,10.75,38-7.1,51.28,30.25-3.72,43.61-38,36-62.62C380.92,316.68,358.69,291.22,358.46,291.29Z" style="fill:#fff;opacity:0.2"></path><path d="M375.15,356.87a117.34,117.34,0,0,0-2.25-29.27,2.62,2.62,0,0,1,4.94-1.63c4.33,9.15,7.63,21.39,2.25,32.29A2.62,2.62,0,0,1,375.15,356.87Z" style="fill:#fff;opacity:0.2"></path><path d="M357.23,389.66s3.71-2.7,7.76-9.86c-2.45,2.36-4.77,1.57-4.77,1.57,2.08-.23,4.31-1.85,5.54-3a49.23,49.23,0,0,0,5.2-17.87c-1,1.77-2.87,4.46-5.13,5.53A22.34,22.34,0,0,0,361,369.3s0-1.3,5-4.88c3.38-2.39,4.78-6.68,5.18-9.27,0-1,0-2.09-.1-3.17a165.75,165.75,0,0,0-2.35-19.58C362.53,334,358.34,344,358.34,344c3.14-9.32,8.09-13,10-13.71-1.15-6.33-2.58-12.65-4.2-18.87-2.82,5.69-5.84,6-5.84,6a17.17,17.17,0,0,0,5-9.4c-1.68-6.31-3.3-11.9-4.85-16.73-1-3.26-4.21-12.74-4.21-12.74,1.14.4,1.7.61,2.82,1,3.34,12.09,7.53,23.88,10.61,36.07,6.6,8.82,12.08,18.36,18.29,27.44-6.88-7.32-12-16.43-17.67-24.66A184.93,184.93,0,0,1,371.8,340c3.34,9.28,6.23,18.72,9.57,28-3.87-7.17-6.58-15.07-9.08-22.79.15,1.89.26,3.8.35,5.75a55.16,55.16,0,0,1-1.81,17.28c-.11,1.89-.24,4-.22,6,.07,4.95-2.83,9.94-2.83,9.94s2-7,2-9.61c0-1.13,0-2.25.1-3.16C366.84,378.35,363.69,385.26,357.23,389.66Z" style="fill:#263238"></path><path d="M140.53,272.51c2.26-.83,1.79-35.25.16-51.77-1.76-17.8-11.92-37.62,5.51-51.47-30.12,4.65-42.42,39.34-34,63.7C117.3,247.83,140.3,272.59,140.53,272.51Z" style="fill:#263238"></path><path d="M140.53,272.51c2.26-.83,1.79-35.25.16-51.77-1.76-17.8-11.92-37.62,5.51-51.47-30.12,4.65-42.42,39.34-34,63.7C117.3,247.83,140.3,272.59,140.53,272.51Z" style="fill:#fff;opacity:0.2"></path><path d="M121.82,207.48A117.84,117.84,0,0,0,125,236.67a2.62,2.62,0,0,1-4.89,1.78c-4.62-9-8.29-21.14-3.25-32.21A2.62,2.62,0,0,1,121.82,207.48Z" style="fill:#fff;opacity:0.2"></path><path d="M138.72,174.15s-3.63,2.81-7.45,10.1c2.38-2.44,4.72-1.72,4.72-1.72-2.08.29-4.26,2-5.44,3.16a48.86,48.86,0,0,0-4.65,18c.9-1.8,2.73-4.54,4.95-5.67a22.32,22.32,0,0,0,4.73-3.42s.07,1.3-4.88,5c-3.3,2.49-4.57,6.83-4.89,9.43,0,1,.1,2.09.2,3.16a165.09,165.09,0,0,0,3,19.5c6.17-1.82,10.05-11.89,10.05-11.89-2.85,9.42-7.68,13.24-9.61,14,1.34,6.28,3,12.56,4.78,18.73,2.64-5.78,5.65-6.21,5.65-6.21a17.09,17.09,0,0,0-4.67,9.55c1.86,6.25,3.66,11.79,5.36,16.57,1.15,3.22,4.6,12.61,4.6,12.61-1.15-.37-1.72-.56-2.85-1-3.71-12-8.27-23.63-11.72-35.73-6.87-8.6-12.64-18-19.13-26.85,7.1,7.1,12.54,16,18.42,24.1a181.83,181.83,0,0,1-4.15-21.46c-3.64-9.17-6.82-18.51-10.44-27.69,4.09,7.05,7,14.86,9.78,22.5-.21-1.88-.37-3.79-.53-5.74A55.65,55.65,0,0,1,125.78,196c.06-1.9.13-4,0-6-.22-5,2.53-10,2.53-10s-1.82,7.07-1.7,9.67c0,1.13,0,2.25,0,3.16C129.46,185.75,132.4,178.74,138.72,174.15Z" style="fill:#263238"></path><path d="M175.72,299.75s-24.5-32.12-54.74-32.11S95,288.85,57.56,288.88c0,0,47.26,29,82.71,20Z" style="fill:#263238"></path><path d="M175.72,299.75s-24.5-32.12-54.74-32.11S95,288.85,57.56,288.88c0,0,47.26,29,82.71,20Z" style="fill:#fff;opacity:0.1"></path><path d="M152,282.6a2.16,2.16,0,0,1-1.7,3.92A75.63,75.63,0,0,0,119,284.74c-10.49,1.6-19.31,2.71-26.13,3.46a2.15,2.15,0,0,1-1.23-4.05A57.25,57.25,0,0,0,104,275.32C113.54,266.34,136.16,272.88,152,282.6Z" style="fill:#fff;opacity:0.1"></path><path d="M187.62,307.94s-8.8-6.32-11.9-8.19c-13.22-8-33.09-17.33-60.59-12S69,291.15,69,291.15s12.07,4.22,47.88-1.38c39.28-6.15,69.52,19.62,69.52,19.62Z" style="fill:#263238"></path><path d="M154.07,291.36s-16.51,5.09-23.94,16.4c0,0,3.35-11.12,21.09-17.09Z" style="fill:#263238"></path><path d="M131.15,287.68s-16.4,4.44-25,18c0,0,4.21-12.59,20.33-18.11Z" style="fill:#263238"></path><path d="M104,290.38s-6.53,1.49-10.76,4.37-10.34,3.18-10.34,3.18,7.19-2.49,9.42-4.05a20.11,20.11,0,0,1,4.86-2.38Z" style="fill:#263238"></path><path d="M87.56,291.86s-5.94-1.52-9-4.87a9.13,9.13,0,0,0,7,4.77Z" style="fill:#263238"></path><path d="M114.21,288.31A21.37,21.37,0,0,1,99.53,284c-6.78-5.32-8.41-4.33-8.41-4.33a28.38,28.38,0,0,1,6.61,4.74c3.8,3.82,10.59,5.46,10.59,5.46Z" style="fill:#263238"></path><path d="M137.53,287.37s-3.08-11.28-17.45-17.52c0,0,12.52,8,15.1,16.95Z" style="fill:#263238"></path><path d="M161.22,293.09a44.62,44.62,0,0,1-11-13.45s.42,4.81,8.43,13.62Z" style="fill:#263238"></path></g><g id="freepik--peach-1--inject-130"><path d="M192.1,305.6s40.5,20.62,68.5-12.38,16.5-106.5-49.5-116.5-90,60.5-80,94S169.1,317.48,192.1,305.6Z" style="fill:#407BFF"></path><path d="M169.6,258.22c1.2-34.9,13.5-44.5,13.5-44.5s16.63-12.61,23-27.5c3-6.95-.8-9.59-5.67-10.43-57.9-1.29-78.77,63.3-69.33,94.93,10,33.5,38,46.76,61,34.88C192.1,305.6,168.4,293.11,169.6,258.22Z" style="opacity:0.1"></path><path d="M260.6,293.22c15.09-17.79,18.7-47.35,8.49-72.39h0s15.51,37.39-23,62.5-72.37-2.85-72.37-2.85.57,15.33-18.63,14.24C139,293.8,131.49,270.5,129.49,263a50.34,50.34,0,0,0,1.61,7.7c10,33.5,38,46.76,61,34.88C192.1,305.6,232.6,326.22,260.6,293.22Z" style="fill:#407BFF"></path><path d="M260.6,293.22c15.09-17.79,18.7-47.35,8.49-72.39h0s15.51,37.39-23,62.5-72.37-2.85-72.37-2.85.57,15.33-18.63,14.24C139,293.8,131.49,270.5,129.49,263a50.34,50.34,0,0,0,1.61,7.7c10,33.5,38,46.76,61,34.88C192.1,305.6,232.6,326.22,260.6,293.22Z" style="opacity:0.2"></path><path d="M169.6,258.22s-7.42,32.33,15.31,50.23a39.68,39.68,0,0,0,7.19-2.85S170.6,292.22,169.6,258.22Z" style="fill:#407BFF"></path><path d="M206.1,186.22s-2.5,17-23,27.5Z" style="fill:#407BFF"></path><path d="M169.6,258.22s-7.42,32.33,15.31,50.23a39.68,39.68,0,0,0,7.19-2.85S170.6,292.22,169.6,258.22Z" style="opacity:0.30000000000000004"></path><path d="M206.1,186.22s-2.5,17-23,27.5Z" style="opacity:0.2"></path><path d="M190.6,176.21c-25.18,2.88-42.26,19-51.95,38.18-1.17,2.42-4.57,10.67,1.95,12.66,7.67,2.33,15.33-24.33,32.33-33.67S198.09,180,190.6,176.21Z" style="fill:#407BFF"></path><path d="M231.6,213.72c-14-3-9.67,28.33-3.33,28.33C239.93,242.05,263.82,220.62,231.6,213.72Z" style="fill:#fff;opacity:0.2"></path></g><g id="freepik--peach-2--inject-130"><path d="M225.23,329.63s12,5.5,18.66,13.84,35.67,37.66,80,18.33,39.89-63.3,34.28-77-13.28-13.69-13.28-13.69-6.66-16.66-25.66-29.5-71,48.5-71,48.5l-15.34,25Z" style="fill:#407BFF"></path><path d="M328.73,265.63s8-12-9.5-24-46.5,1.5-68.5,14-30.5,25.5-28,40.5,2.5,33.5,2.5,33.5,10,3,26,15.5,50.18,9,80.34-6S376.23,267.63,328.73,265.63Z" style="fill:#407BFF"></path><path d="M328.73,265.63s8-12-9.5-24-46.5,1.5-68.5,14-30.5,25.5-28,40.5,2.5,33.5,2.5,33.5,10,3,26,15.5,50.18,9,80.34-6S376.23,267.63,328.73,265.63Z" style="fill:#fff;opacity:0.5"></path><path d="M225.23,329.63s10,3,26,15.5,50.18,9,80.34-6,44.66-71.5-2.84-73.5Z" style="fill:#fff;opacity:0.2"></path><path d="M261.23,311.8c-4.62-7.66-6.67-18,18-32s37.33-13.33,41-6.33S315.94,298,299.89,305.8C281.56,314.67,265.28,318.54,261.23,311.8Z" style="fill:#263238"></path><path d="M261.23,311.8c-4.62-7.66-6.67-18,18-32s37.33-13.33,41-6.33S315.94,298,299.89,305.8C281.56,314.67,265.28,318.54,261.23,311.8Z" style="fill:#fff;opacity:0.6000000000000001"></path><g style="opacity:0.30000000000000004"><path d="M321,276.39a21,21,0,0,1-2.48,5.74v-3l-4.67,3.67L310.56,290l6.33-3.17-7.67,9.67V293.8L299.89,303l-10.16,4.33,3.7-4.33-10,4.88,2.33,1.34-11.66,2.44,1.83-2.44c-8.58,2.71-14.41-.83-17.17-3.23a20.37,20.37,0,0,0,2.5,5.84c4.06,6.74,20.34,2.87,38.67-6C314,299,321.88,284.52,321,276.39Z"></path><path d="M305.89,290.47l-8,5.33-7,5.67C303,298,305.89,290.47,305.89,290.47Z"></path><path d="M267.22,307.3c-5.16-3.5-3.66-9.5-3.66-9.5C257.72,306,267.22,307.3,267.22,307.3Z"></path></g></g></svg>